<?xml version="1.0" encoding="UTF-8"?>
<svg version="1.1" xmlns="http://www.w3.org/2000/svg" width="612" height="408">
<path d="M0 0 C0.8585483 -0.00367669 1.71709659 -0.00735338 2.6016615 -0.01114148 C5.48959938 -0.02218834 8.37750129 -0.02602387 11.26545715 -0.02983093 C13.33171198 -0.03609484 15.39796568 -0.04274157 17.46421814 -0.04974365 C23.08629525 -0.06716035 28.70836385 -0.07770732 34.33046126 -0.08594918 C37.84238251 -0.09109809 41.3543011 -0.09717388 44.86622047 -0.10346031 C55.85249114 -0.12251456 66.83875507 -0.13674501 77.82503909 -0.14507228 C90.5098915 -0.15484551 103.19456945 -0.18116641 115.87936038 -0.22157317 C125.68158943 -0.25172689 135.48376845 -0.26654047 145.28604299 -0.26985329 C151.14151037 -0.27220467 156.99679143 -0.2811767 162.85220909 -0.30631447 C168.36223284 -0.32958693 173.87194745 -0.33383159 179.3820076 -0.32355309 C181.40241969 -0.32305741 183.42284696 -0.32938706 185.44321251 -0.34310913 C188.20600093 -0.36082103 190.96767913 -0.35372529 193.73046875 -0.34057617 C194.52610975 -0.35154542 195.32175075 -0.36251466 196.14150208 -0.37381631 C203.06206986 -0.29453898 208.00159969 2.07541672 213.43269348 6.27217102 C219.60023922 14.15292391 220.26731667 22.43396863 220.20027161 32.14912415 C220.20728088 33.41223923 220.21429016 34.67535431 220.22151184 35.97674561 C220.23960641 39.41282494 220.23273599 42.84841901 220.2199955 46.28450584 C220.20979515 49.89796024 220.21928054 53.51137594 220.22554016 57.12483215 C220.23279627 63.19045898 220.22328271 69.25589034 220.20417786 75.32148743 C220.18241286 82.31192266 220.18946569 89.30189107 220.21148348 96.29231501 C220.22969591 102.31814111 220.23216742 108.34382753 220.2217288 114.3696723 C220.21552579 117.95814497 220.21456929 121.54639897 220.22787476 125.13485718 C220.24168581 129.13858723 220.22248889 133.14152562 220.20027161 137.1452179 C220.20836853 138.31850143 220.21646545 139.49178497 220.22480774 140.70062256 C220.14153055 148.83356959 218.8728906 155.94594783 213.85847473 162.54951477 C212.93615051 163.30941711 212.93615051 163.30941711 211.99519348 164.08467102 C211.39320129 164.60931946 210.79120911 165.1339679 210.17097473 165.67451477 C203.78177313 169.45587898 197.2657008 170.59257161 189.94084167 170.52139282 C189.10912968 170.52536723 188.27741769 170.52934163 187.42050231 170.53343648 C184.65925049 170.54299007 181.89852 170.53128383 179.13728333 170.51948547 C177.14733693 170.52191569 175.15739177 170.52563724 173.16744995 170.5305481 C167.7812554 170.53992794 162.39524349 170.53055671 157.00906324 170.51721597 C151.36557467 170.50587393 145.72209472 170.51001103 140.07859802 170.51196289 C130.60480272 170.51284485 121.13107912 170.50178476 111.65730286 170.48335266 C100.70944325 170.46217437 89.76168855 170.45867837 78.81381261 170.46491462 C68.27230597 170.47061156 57.7308362 170.4649595 47.18933487 170.45374107 C42.70704592 170.44910072 38.22477956 170.44821879 33.74248886 170.45032692 C28.46471556 170.45221225 23.18704885 170.44408699 17.90929985 170.42826653 C15.97394311 170.42402893 14.03857554 170.42316959 12.10321617 170.42595673 C9.45888698 170.42918681 6.81487463 170.42007595 4.170578 170.40786743 C3.40724447 170.41164676 2.64391093 170.41542608 1.85744607 170.41931993 C-5.50105921 170.35934055 -11.44655432 168.76882701 -17.31730652 164.14717102 C-21.861946 159.49634838 -24.45767489 156.18500543 -24.41496277 149.47920227 C-24.41174011 148.58652649 -24.40851746 147.69385071 -24.40519714 146.77412415 C-24.39681824 145.84535461 -24.38843933 144.91658508 -24.37980652 143.95967102 C-24.3752948 143.01929993 -24.37078308 142.07892883 -24.36613464 141.11006165 C-24.35435278 138.7890339 -24.3379021 136.46813458 -24.31730652 134.14717102 C-23.43397644 134.13782532 -22.55064636 134.12847961 -21.64054871 134.11885071 C4.67604067 133.77177389 29.75448385 131.20801987 55.43269348 125.20967102 C56.13104309 125.04667511 56.8293927 124.8836792 57.54890442 124.71574402 C71.48516996 121.4280995 85.10551364 117.24737322 98.55769348 112.33467102 C99.47824524 111.9991925 100.398797 111.66371399 101.34724426 111.31806946 C115.28776703 106.15669113 129.05546726 100.15162296 141.87019348 92.58467102 C142.85374817 92.00588196 143.83730286 91.4270929 144.85066223 90.83076477 C146.2525177 89.99738586 146.2525177 89.99738586 147.68269348 89.14717102 C148.99270325 88.67295715 148.99270325 88.67295715 150.32917786 88.18916321 C152.83804912 86.42648213 152.83804912 86.42648213 153.11856079 84.09994507 C153.26426919 81.31758123 153.24352791 78.57702249 153.17097473 75.79170227 C153.16389999 74.77492905 153.15682526 73.75815582 153.14953613 72.71057129 C153.12152266 69.45952618 153.05876934 66.21019649 152.99519348 62.95967102 C152.97011969 60.75722191 152.94730493 58.55474584 152.92683411 56.35224915 C152.87167358 50.94997007 152.7879784 45.54869307 152.68269348 40.14717102 C148.32278475 40.07299056 143.96321069 40.01855558 139.6028595 39.9823761 C138.11972149 39.96729334 136.63662805 39.94682413 135.15364075 39.92085266 C133.02128603 39.88444486 130.88952113 39.86744029 128.75691223 39.85420227 C127.47389221 39.83849182 126.19087219 39.82278137 124.86897278 39.80659485 C121.78017333 39.87570037 121.78017333 39.87570037 120.01057434 41.32588196 C118.18754294 43.82630745 118.28493198 45.54794452 118.25032043 48.62837219 C118.2206292 50.30977547 118.2206292 50.30977547 118.19033813 52.02514648 C118.18394821 53.23459427 118.17755829 54.44404205 118.17097473 55.69013977 C118.15302353 56.92887344 118.13507233 58.16760712 118.11657715 59.44387817 C118.07154271 62.73346562 118.03926698 66.02285561 118.01313782 69.31263733 C117.98333409 72.67103119 117.93680325 76.02918864 117.89167786 79.3874054 C117.80658028 85.97388499 117.73829735 92.56038001 117.68269348 99.14717102 C116.39355861 99.81872035 115.10129144 100.48425961 113.80769348 101.14717102 C113.08839661 101.51842102 112.36909973 101.88967102 111.62800598 102.27217102 C109.68269348 103.14717102 109.68269348 103.14717102 107.68269348 103.14717102 C107.35269348 89.61717102 107.02269348 76.08717102 106.68269348 62.14717102 C101.44394348 62.10592102 96.20519348 62.06467102 90.80769348 62.02217102 C89.15527649 62.00396301 87.5028595 61.985755 85.80036926 61.96699524 C84.50598938 61.96200012 83.2116095 61.957005 81.87800598 61.95185852 C80.85694763 61.93651062 80.85694763 61.93651062 79.81526184 61.92085266 C78.10274341 61.92021533 76.39082112 62.02461596 74.68269348 62.14717102 C72.15964435 64.67022016 72.41550166 65.56048428 72.36384583 69.05586243 C72.34397614 70.07676971 72.32410645 71.097677 72.30363464 72.14952087 C72.29208344 73.25476105 72.28053223 74.36000122 72.26863098 75.49873352 C72.24926483 76.62790192 72.22989868 77.75707031 72.20994568 78.92045593 C72.15002279 82.53761674 72.10371346 86.15480915 72.05769348 89.77217102 C72.01952543 92.2201018 71.9804744 94.66801898 71.94050598 97.11592102 C71.84431089 103.12621726 71.75930083 109.13659495 71.68269348 115.14717102 C67.22769348 115.64217102 67.22769348 115.64217102 62.68269348 116.14717102 C62.18769348 103.27717102 62.18769348 103.27717102 61.68269348 90.14717102 C59.42425598 92.31279602 59.42425598 92.31279602 57.12019348 94.52217102 C46.07646023 104.71379555 33.25184321 111.87540524 19.68269348 118.14717102 C18.73652161 118.59576477 17.79034973 119.04435852 16.81550598 119.50654602 C10.06381357 122.52034495 3.04632666 124.70527909 -4.00480652 126.89717102 C-4.97941833 127.20340393 -5.95403015 127.50963684 -6.95817566 127.82514954 C-8.37924622 128.2552533 -8.37924622 128.2552533 -9.82902527 128.69404602 C-10.66909119 128.95024719 -11.5091571 129.20644836 -12.37467957 129.47041321 C-16.32453749 130.37881827 -20.28673839 130.76662227 -24.31730652 131.14717102 C-25.34436416 110.11427969 -25.50519813 89.10622985 -25.50260925 68.0526886 C-25.50250622 63.45267128 -25.51635147 58.85280346 -25.53338146 54.25282192 C-25.54452601 50.65898957 -25.54652799 47.06519376 -25.54599953 43.4713459 C-25.54716846 41.77425161 -25.55152806 40.07715602 -25.55933189 38.38007927 C-25.66260737 13.68976031 -25.66260737 13.68976031 -17.31730652 5.14717102 C-11.84025153 0.59395663 -6.9247331 -0.00158239 0 0 Z M1.18269348 10.70967102 C-0.82209433 13.96745121 -0.60593511 16.39499935 -0.31730652 20.14717102 C-1.63730652 20.14717102 -2.95730652 20.14717102 -4.31730652 20.14717102 C-4.31730652 21.13717102 -4.31730652 22.12717102 -4.31730652 23.14717102 C-2.99730652 23.14717102 -1.67730652 23.14717102 -0.31730652 23.14717102 C-0.31730652 30.07717102 -0.31730652 37.00717102 -0.31730652 44.14717102 C1.66269348 44.14717102 3.64269348 44.14717102 5.68269348 44.14717102 C6.01269348 37.54717102 6.34269348 30.94717102 6.68269348 24.14717102 C8.33269348 23.81717102 9.98269348 23.48717102 11.68269348 23.14717102 C11.68269348 22.15717102 11.68269348 21.16717102 11.68269348 20.14717102 C9.70269348 20.14717102 7.72269348 20.14717102 5.68269348 20.14717102 C6.01269348 17.50717102 6.34269348 14.86717102 6.68269348 12.14717102 C8.33269348 12.14717102 9.98269348 12.14717102 11.68269348 12.14717102 C11.68269348 11.15717102 11.68269348 10.16717102 11.68269348 9.14717102 C6.12983846 8.65062001 6.12983846 8.65062001 1.18269348 10.70967102 Z M19.68269348 9.14717102 C19.68269348 10.46717102 19.68269348 11.78717102 19.68269348 13.14717102 C21.33269348 13.14717102 22.98269348 13.14717102 24.68269348 13.14717102 C24.68269348 11.82717102 24.68269348 10.50717102 24.68269348 9.14717102 C23.03269348 9.14717102 21.38269348 9.14717102 19.68269348 9.14717102 Z M164.68269348 21.14717102 C164.1070037 23.84285639 164.1070037 23.84285639 164.22859192 26.83369446 C164.22889404 27.9745752 164.22919617 29.11545593 164.22950745 30.29090881 C164.25015259 31.51706909 164.27079773 32.74322937 164.29206848 34.00654602 C164.29772827 35.26606079 164.30338806 36.52557556 164.30921936 37.82325745 C164.32781301 41.16426126 164.3637202 44.50416569 164.40803528 47.84486389 C164.44902846 51.25673441 164.4672389 54.66871871 164.48738098 58.08076477 C164.53149684 64.76987022 164.59844698 71.45845716 164.68269348 78.14717102 C165.77815491 77.5361554 166.87361633 76.92513977 168.00227356 76.29560852 C168.61847061 75.95191223 169.23466766 75.60821594 169.86953735 75.25410461 C172.68019452 73.53819566 174.97259028 71.39429704 177.37019348 69.14717102 C178.12405334 68.4423761 178.12405334 68.4423761 178.8931427 67.7233429 C182.75373713 64.08899725 186.54403148 60.38158622 190.30769348 56.64717102 C190.81647034 56.14314758 191.32524719 55.63912415 191.84944153 55.11982727 C196.29232492 50.82154134 196.29232492 50.82154134 197.9256134 45.06855774 C197.92150452 43.833797 197.91739563 42.59903625 197.91316223 41.32685852 C197.91270401 40.66759369 197.91224579 40.00832886 197.91177368 39.3290863 C197.90875763 37.93883967 197.90089063 36.54859622 197.88850403 35.15840149 C197.87020082 33.02302685 197.86799473 30.88808481 197.86824036 28.75263977 C198.48125578 22.46873179 198.48125578 22.46873179 196.68269348 17.14717102 C192.08559984 16.83664341 187.47647945 16.86869086 182.87019348 16.83467102 C181.57275208 16.80566711 180.27531067 16.77666321 178.93855286 16.7467804 C177.69267395 16.73840149 176.44679504 16.73002258 175.16316223 16.72138977 C174.01742737 16.70680725 172.8716925 16.69222473 171.6912384 16.67720032 C167.95075808 17.26150808 167.00643743 18.21016629 164.68269348 21.14717102 Z M38.68269348 23.14717102 C38.68269348 22.15717102 38.68269348 21.16717102 38.68269348 20.14717102 C37.03269348 20.14717102 35.38269348 20.14717102 33.68269348 20.14717102 C33.68269348 28.06717102 33.68269348 35.98717102 33.68269348 44.14717102 C35.33269348 44.14717102 36.98269348 44.14717102 38.68269348 44.14717102 C38.70847473 43.03857727 38.73425598 41.92998352 38.76081848 40.78779602 C38.81711004 39.32421555 38.87445715 37.8606754 38.93269348 36.39717102 C38.94687317 35.66756165 38.96105286 34.93795227 38.97566223 34.18623352 C39.1289272 30.81440414 39.45952583 28.49600589 41.29206848 25.63154602 C43.68269348 24.14717102 43.68269348 24.14717102 50.68269348 24.14717102 C51.01269348 30.74717102 51.34269348 37.34717102 51.68269348 44.14717102 C53.66269348 44.14717102 55.64269348 44.14717102 57.68269348 44.14717102 C57.7909214 41.08371958 57.87010828 38.02411092 57.93269348 34.95967102 C57.96620911 34.09535461 57.99972473 33.23103821 58.03425598 32.3405304 C58.09863715 28.1396594 58.0594739 25.7805519 55.87019348 22.10029602 C50.03573043 16.89095401 44.50949679 19.62081993 38.68269348 23.14717102 Z M19.68269348 20.14717102 C19.68269348 28.06717102 19.68269348 35.98717102 19.68269348 44.14717102 C21.33269348 44.14717102 22.98269348 44.14717102 24.68269348 44.14717102 C24.68269348 36.22717102 24.68269348 28.30717102 24.68269348 20.14717102 C23.03269348 20.14717102 21.38269348 20.14717102 19.68269348 20.14717102 Z M-5.94230652 60.83467102 C-7.74320268 63.41505003 -7.74320268 63.41505003 -7.31730652 68.14717102 C-2.69730652 68.14717102 1.92269348 68.14717102 6.68269348 68.14717102 C6.68269348 65.17717102 6.68269348 62.20717102 6.68269348 59.14717102 C0.05456758 58.53996148 0.05456758 58.53996148 -5.94230652 60.83467102 Z M11.68269348 59.14717102 C10.31774916 66.48374675 9.0079012 73.66168453 9.68269348 81.14717102 C10.01269348 81.47717102 10.34269348 81.80717102 10.68269348 82.14717102 C11.14481981 85.80424482 11.38698521 89.47193965 11.68269348 93.14717102 C15.31269348 93.14717102 18.94269348 93.14717102 22.68269348 93.14717102 C23.76036838 81.56216581 23.76036838 70.73217623 22.68269348 59.14717102 C19.05269348 59.14717102 15.42269348 59.14717102 11.68269348 59.14717102 Z M26.68269348 59.14717102 C26.68269348 62.11717102 26.68269348 65.08717102 26.68269348 68.14717102 C31.30269348 68.14717102 35.92269348 68.14717102 40.68269348 68.14717102 C40.41875847 64.71486655 40.41875847 64.71486655 39.68269348 61.14717102 C36.36898348 58.93803102 35.33809139 58.92235549 31.49519348 59.02217102 C30.14361145 59.04924133 30.14361145 59.04924133 28.76472473 59.07685852 C27.73411926 59.11166321 27.73411926 59.11166321 26.68269348 59.14717102 Z M-7.31730652 72.14717102 C-7.31730652 74.45717102 -7.31730652 76.76717102 -7.31730652 79.14717102 C-3.02730652 79.14717102 1.26269348 79.14717102 5.68269348 79.14717102 C5.68269348 76.83717102 5.68269348 74.52717102 5.68269348 72.14717102 C1.39269348 72.14717102 -2.89730652 72.14717102 -7.31730652 72.14717102 Z M27.68269348 72.14717102 C27.68269348 74.45717102 27.68269348 76.76717102 27.68269348 79.14717102 C31.97269348 79.14717102 36.26269348 79.14717102 40.68269348 79.14717102 C40.68269348 76.83717102 40.68269348 74.52717102 40.68269348 72.14717102 C36.39269348 72.14717102 32.10269348 72.14717102 27.68269348 72.14717102 Z M-7.31730652 84.14717102 C-7.13600837 87.58510441 -7.13600837 87.58510441 -6.31730652 91.14717102 C-2.23934302 93.98718132 1.90415324 93.28771632 6.68269348 93.14717102 C6.68269348 90.17717102 6.68269348 87.20717102 6.68269348 84.14717102 C2.06269348 84.14717102 -2.55730652 84.14717102 -7.31730652 84.14717102 Z M26.68269348 84.14717102 C26.68269348 87.11717102 26.68269348 90.08717102 26.68269348 93.14717102 C33.53298185 93.63744882 33.53298185 93.63744882 39.68269348 91.14717102 C40.50139533 87.58510441 40.50139533 87.58510441 40.68269348 84.14717102 C36.06269348 84.14717102 31.44269348 84.14717102 26.68269348 84.14717102 Z M180.68269348 121.14717102 C179.19819784 132.17811553 179.99688817 143.08097915 180.68269348 154.14717102 C182.00269348 154.14717102 183.32269348 154.14717102 184.68269348 154.14717102 C184.68269348 150.84717102 184.68269348 147.54717102 184.68269348 144.14717102 C189.73984546 145.33708913 191.44397868 148.29445023 194.05769348 152.46748352 C195.60745405 154.43543775 195.60745405 154.43543775 198.37019348 154.38935852 C199.13331848 154.30943665 199.89644348 154.22951477 200.68269348 154.14717102 C200.13514072 150.31430166 198.44938938 148.74618838 195.68269348 146.14717102 C193.68269348 143.14717102 193.68269348 143.14717102 193.68269348 139.14717102 C195.64454764 137.43576633 197.64571731 135.76843777 199.68269348 134.14717102 C200.01269348 133.15717102 200.34269348 132.16717102 200.68269348 131.14717102 C198.48354852 130.55519489 198.48354852 130.55519489 195.68269348 131.14717102 C192.52586705 133.67927811 189.50463603 136.50328593 187.68269348 140.14717102 C186.69269348 140.47717102 185.70269348 140.80717102 184.68269348 141.14717102 C184.68269348 134.54717102 184.68269348 127.94717102 184.68269348 121.14717102 C183.36269348 121.14717102 182.04269348 121.14717102 180.68269348 121.14717102 Z M89.68269348 125.14717102 C89.35269348 126.79717102 89.02269348 128.44717102 88.68269348 130.14717102 C87.36269348 130.47717102 86.04269348 130.80717102 84.68269348 131.14717102 C84.68269348 132.13717102 84.68269348 133.12717102 84.68269348 134.14717102 C86.00269348 134.14717102 87.32269348 134.14717102 88.68269348 134.14717102 C88.64788879 135.17197571 88.61308411 136.1967804 88.57722473 137.25263977 C88.54907313 138.61330038 88.52177445 139.97397882 88.49519348 141.33467102 C88.47005676 142.00820618 88.44492004 142.68174133 88.41902161 143.37568665 C88.35431802 147.79709855 88.7230975 150.77219315 91.68269348 154.14717102 C93.95601147 154.74886548 93.95601147 154.74886548 96.37019348 154.45967102 C97.17843567 154.41455383 97.98667786 154.36943665 98.81941223 154.32295227 C99.43429504 154.26494446 100.04917786 154.20693665 100.68269348 154.14717102 C100.68269348 153.15717102 100.68269348 152.16717102 100.68269348 151.14717102 C98.70269348 150.48717102 96.72269348 149.82717102 94.68269348 149.14717102 C94.68269348 144.52717102 94.68269348 139.90717102 94.68269348 135.14717102 C96.66269348 134.81717102 98.64269348 134.48717102 100.68269348 134.14717102 C100.68269348 133.15717102 100.68269348 132.16717102 100.68269348 131.14717102 C98.37269348 131.14717102 96.06269348 131.14717102 93.68269348 131.14717102 C93.68269348 129.16717102 93.68269348 127.18717102 93.68269348 125.14717102 C92.36269348 125.14717102 91.04269348 125.14717102 89.68269348 125.14717102 Z M106.68269348 131.14717102 C106.68269348 138.73717102 106.68269348 146.32717102 106.68269348 154.14717102 C108.66269348 154.14717102 110.64269348 154.14717102 112.68269348 154.14717102 C113.01269348 148.86717102 113.34269348 143.58717102 113.68269348 138.14717102 C115.99269348 137.15717102 118.30269348 136.16717102 120.68269348 135.14717102 C120.68269348 133.82717102 120.68269348 132.50717102 120.68269348 131.14717102 C116.86172109 131.67786163 114.62097945 132.64418668 111.68269348 135.14717102 C111.68269348 133.82717102 111.68269348 132.50717102 111.68269348 131.14717102 C110.03269348 131.14717102 108.38269348 131.14717102 106.68269348 131.14717102 Z M125.68269348 136.14717102 C127.33269348 136.47717102 128.98269348 136.80717102 130.68269348 137.14717102 C131.01269348 136.48717102 131.34269348 135.82717102 131.68269348 135.14717102 C133.99269348 135.14717102 136.30269348 135.14717102 138.68269348 135.14717102 C139.34269348 137.12717102 140.00269348 139.10717102 140.68269348 141.14717102 C139.93503723 141.1961554 139.18738098 141.24513977 138.41706848 141.29560852 C136.93980286 141.40775696 136.93980286 141.40775696 135.43269348 141.52217102 C134.45816223 141.5917804 133.48363098 141.66138977 132.47956848 141.73310852 C129.75198583 142.13691266 127.98333295 142.65043316 125.68269348 144.14717102 C124.42668935 147.24531455 124.56417907 148.76623183 125.55769348 151.95967102 C128.03487354 154.50970931 128.69180521 154.52856121 132.12019348 154.64717102 C135.80614154 154.45506949 138.04575685 153.89875707 140.68269348 151.14717102 C140.68269348 152.13717102 140.68269348 153.12717102 140.68269348 154.14717102 C142.33269348 154.14717102 143.98269348 154.14717102 145.68269348 154.14717102 C145.6308754 150.87503817 145.53581944 147.60555725 145.43269348 144.33467102 C145.41851379 143.40590149 145.40433411 142.47713196 145.38972473 141.5202179 C145.35749817 140.62754211 145.32527161 139.73486633 145.29206848 138.81513977 C145.27112122 137.99295959 145.25017395 137.17077942 145.22859192 136.32368469 C144.8513518 133.98485452 144.8513518 133.98485452 142.79475403 132.38471985 C136.33503215 128.59968573 129.92100822 130.4960847 125.68269348 136.14717102 Z M152.68269348 136.14717102 C151.33539901 140.83304426 151.31980753 145.45278607 152.68269348 150.14717102 C153.34269348 150.14717102 154.00269348 150.14717102 154.68269348 150.14717102 C154.68269348 150.80717102 154.68269348 151.46717102 154.68269348 152.14717102 C159.1200807 155.10542917 163.47642311 154.80185173 168.68269348 154.14717102 C171.42459182 152.49865345 171.42459182 152.49865345 172.68269348 150.14717102 C172.68269348 149.48717102 172.68269348 148.82717102 172.68269348 148.14717102 C170.84568559 147.37474833 170.84568559 147.37474833 168.68269348 147.14717102 C168.24956848 147.62154602 167.81644348 148.09592102 167.37019348 148.58467102 C165.68269348 150.14717102 165.68269348 150.14717102 161.99519348 150.33467102 C160.35550598 150.24185852 160.35550598 150.24185852 158.68269348 150.14717102 C157.26773804 141.36762821 157.26773804 141.36762821 158.74519348 137.02217102 C160.68269348 135.14717102 160.68269348 135.14717102 163.74519348 134.64717102 C164.71456848 134.81217102 165.68394348 134.97717102 166.68269348 135.14717102 C167.67269348 136.63217102 167.67269348 136.63217102 168.68269348 138.14717102 C170.00269348 138.14717102 171.32269348 138.14717102 172.68269348 138.14717102 C171.43292592 134.49400431 171.01170595 133.36651266 167.68269348 131.14717102 C161.12368356 129.96030256 156.90869056 130.97032459 152.68269348 136.14717102 Z " fill="#272727" transform="translate(204.3173065185547,104.85282897949219)"/>
<path d="M0 0 C1.4540625 0.0309375 1.4540625 0.0309375 2.9375 0.0625 C3.5975 1.3825 4.2575 2.7025 4.9375 4.0625 C5.9275 4.0625 6.9175 4.0625 7.9375 4.0625 C7.9375 5.0525 7.9375 6.0425 7.9375 7.0625 C8.5975 7.0625 9.2575 7.0625 9.9375 7.0625 C9.9375 8.7125 9.9375 10.3625 9.9375 12.0625 C8.9475 12.5575 8.9475 12.5575 7.9375 13.0625 C7.380625 13.5575 6.82375 14.0525 6.25 14.5625 C3.12764245 16.587813 0.63201932 16.92815384 -3.0625 17.0625 C-4.9375 16.125 -4.9375 16.125 -6.0625 14.0625 C-7.60651583 7.22471563 -7.60651583 7.22471563 -5.6875 3.125 C-3.27808768 0.06689975 -3.27808768 0.06689975 0 0 Z " fill="#333333" transform="translate(368.0625,238.9375)"/>
<path d="M0 0 C0.33 0 0.66 0 1 0 C1.06058594 0.71027344 1.12117188 1.42054688 1.18359375 2.15234375 C1.30927734 3.53099609 1.30927734 3.53099609 1.4375 4.9375 C1.51871094 5.85402344 1.59992188 6.77054688 1.68359375 7.71484375 C1.76044976 9.96159732 1.76044976 9.96159732 3 11 C3.07226502 12.85287502 3.0838122 14.70833878 3.0625 16.5625 C3.05347656 17.57441406 3.04445312 18.58632812 3.03515625 19.62890625 C3.02355469 20.41136719 3.01195312 21.19382813 3 22 C2.67 22 2.34 22 2 22 C2 18.7 2 15.4 2 12 C1.01 12.495 1.01 12.495 0 13 C-0.46651207 15.12576782 -0.46651207 15.12576782 -0.625 17.5625 C-0.69976562 18.38878906 -0.77453125 19.21507812 -0.8515625 20.06640625 C-0.90054688 20.70449219 -0.94953125 21.34257812 -1 22 C-1.33 22 -1.66 22 -2 22 C-2 19.03 -2 16.06 -2 13 C-6.62 13 -11.24 13 -16 13 C-16 11.35 -16 9.7 -16 8 C-11.71 8 -7.42 8 -3 8 C-3 5.69 -3 3.38 -3 1 C-2.67 1 -2.34 1 -2 1 C-2 2.65 -2 4.3 -2 6 C-1.34 6 -0.68 6 0 6 C0 4.02 0 2.04 0 0 Z " fill="#5C5C5C" transform="translate(213,176)"/>
<path d="M0 0 C8.66666667 0 17.33333333 0 26 0 C26 0.33 26 0.66 26 1 C22.7 1 19.4 1 16 1 C16 3.97 16 6.94 16 10 C15.67 10 15.34 10 15 10 C14.67 14.29 14.34 18.58 14 23 C13.67 23 13.34 23 13 23 C12.08680711 15.6292288 11.91364608 8.42643712 12 1 C8.37 1 4.74 1 1 1 C1 3.31 1 5.62 1 8 C0.67 8 0.34 8 0 8 C0 5.36 0 2.72 0 0 Z " fill="#858585" transform="translate(215,163)"/>
<path d="M0 0 C-0.3125 3.375 -0.3125 3.375 -1 7 C-4 9 -4 9 -7.1875 8.625 C-8.5796875 8.315625 -8.5796875 8.315625 -10 8 C-10.33 6.35 -10.66 4.7 -11 3 C-7.48550811 -0.37391222 -4.73940561 -0.27342725 0 0 Z " fill="#4E4E4E" transform="translate(345,248)"/>
<path d="M0 0 C3.5625 0.1875 3.5625 0.1875 5.5625 2.1875 C5.5625 3.8375 5.5625 5.4875 5.5625 7.1875 C1.9325 7.5175 -1.6975 7.8475 -5.4375 8.1875 C-4.42618176 0.2414281 -4.42618176 0.2414281 0 0 Z " fill="#4F4F4F" transform="translate(339.4375,238.8125)"/>
<path d="M0 0 C2 2 2 2 2 9 C6.62 9 11.24 9 16 9 C14.68 9.33 13.36 9.66 12 10 C12 10.66 12 11.32 12 12 C8.37 12 4.74 12 1 12 C1 12.99 1 13.98 1 15 C0.34 15 -0.32 15 -1 15 C-0.67 10.05 -0.34 5.1 0 0 Z " fill="#1A1A1A" transform="translate(229,176)"/>
<path d="M0 0 C0.66 0 1.32 0 2 0 C1.67 3.63 1.34 7.26 1 11 C0.34 11 -0.32 11 -1 11 C-1.33 9.35 -1.66 7.7 -2 6 C-2.67546875 5.96261719 -3.3509375 5.92523438 -4.046875 5.88671875 C-4.93890625 5.82097656 -5.8309375 5.75523437 -6.75 5.6875 C-8.07257813 5.60048828 -8.07257813 5.60048828 -9.421875 5.51171875 C-12 5 -12 5 -16 2 C-10.72 2 -5.44 2 0 2 C0 1.34 0 0.68 0 0 Z " fill="#1D1D1D" transform="translate(212,171)"/>
<path d="M0 0 C0.33 0 0.66 0 1 0 C1.06058594 0.71027344 1.12117187 1.42054688 1.18359375 2.15234375 C1.26738281 3.07144531 1.35117188 3.99054688 1.4375 4.9375 C1.51871094 5.85402344 1.59992188 6.77054688 1.68359375 7.71484375 C1.76044976 9.96159732 1.76044976 9.96159732 3 11 C3.07226502 12.85287502 3.0838122 14.70833878 3.0625 16.5625 C3.05347656 17.57441406 3.04445312 18.58632812 3.03515625 19.62890625 C3.02355469 20.41136719 3.01195312 21.19382813 3 22 C2.67 22 2.34 22 2 22 C2 18.7 2 15.4 2 12 C1.01 12.33 0.02 12.66 -1 13 C-1 12.34 -1 11.68 -1 11 C-1.66 10.67 -2.32 10.34 -3 10 C-2.67 8.68 -2.34 7.36 -2 6 C-1.34 6 -0.68 6 0 6 C0 4.02 0 2.04 0 0 Z " fill="#787878" transform="translate(213,176)"/>
<path d="M0 0 C0.66 0 1.32 0 2 0 C2.33 0.99 2.66 1.98 3 3 C3.99 2.67 4.98 2.34 6 2 C6 2.66 6 3.32 6 4 C5.34 4 4.68 4 4 4 C4 4.99 4 5.98 4 7 C4.99 7.33 5.98 7.66 7 8 C7.33 9.65 7.66 11.3 8 13 C5.69 13 3.38 13 1 13 C2.32 12.34 3.64 11.68 5 11 C5 10.01 5 9.02 5 8 C4.01 7.67 3.02 7.34 2 7 C0.3125 3.9375 0.3125 3.9375 -1 1 C-0.67 0.67 -0.34 0.34 0 0 Z " fill="#696969" transform="translate(399,247)"/>
<path d="M0 0 C0.53625 0.144375 1.0725 0.28875 1.625 0.4375 C4.78187532 1.185181 7.76544217 1.05881014 11 1 C11.99 1 12.98 1 14 1 C13.67 1.99 13.34 2.98 13 4 C12.18015625 3.97679687 11.3603125 3.95359375 10.515625 3.9296875 C9.43796875 3.91164062 8.3603125 3.89359375 7.25 3.875 C6.18265625 3.85179687 5.1153125 3.82859375 4.015625 3.8046875 C1.07529894 3.99512313 -0.52361878 4.47329896 -3 6 C-1.125 1.125 -1.125 1.125 0 0 Z " fill="#535353" transform="translate(334,233)"/>
<path d="M0 0 C0.33 0 0.66 0 1 0 C1 7.59 1 15.18 1 23 C1.99 23.33 2.98 23.66 4 24 C2.68 24.33 1.36 24.66 0 25 C-1.02820502 21.91538494 -1.04582849 20.10314761 -0.87890625 16.89453125 C-0.83056641 15.91162109 -0.78222656 14.92871094 -0.73242188 13.91601562 C-0.67634766 12.89185547 -0.62027344 11.86769531 -0.5625 10.8125 C-0.51029297 9.77673828 -0.45808594 8.74097656 -0.40429688 7.67382812 C-0.27461607 5.11557951 -0.13965022 2.55772062 0 0 Z " fill="#494948" transform="translate(310,236)"/>
<path d="M0 0 C1.17353189 3.52059568 1.20146402 6.306493 1 10 C0.34 10.66 -0.32 11.32 -1 12 C-1 11.34 -1 10.68 -1 10 C-1.66 10 -2.32 10 -3 10 C-2.25 2.25 -2.25 2.25 0 0 Z " fill="#4A4A4A" transform="translate(364,240)"/>
<path d="M0 0 C0.99 0.66 1.98 1.32 3 2 C2.34 3.98 1.68 5.96 1 8 C0.01 8 -0.98 8 -2 8 C-1.7525 7.1028125 -1.7525 7.1028125 -1.5 6.1875 C-0.8885876 3.88655664 -0.8885876 3.88655664 -1 1 C-0.67 0.67 -0.34 0.34 0 0 Z " fill="#3E3E3E" transform="translate(393,250)"/>
<path d="M0 0 C0.99 0.33 1.98 0.66 3 1 C2.25 2.9375 2.25 2.9375 1 5 C-0.32303717 5.3721042 -1.65737935 5.70630173 -3 6 C-3.66 6.99 -4.32 7.98 -5 9 C-4.67 7.35 -4.34 5.7 -4 4 C-3.34 4 -2.68 4 -2 4 C-1.34 2.68 -0.68 1.36 0 0 Z " fill="#5D5D5D" transform="translate(402,239)"/>
<path d="M0 0 C-1 1.5625 -1 1.5625 -3 3 C-5.76614782 2.96726452 -8.26030547 2.49404328 -11 2 C-6.98764085 -0.6749061 -4.6342454 -1.48957888 0 0 Z " fill="#525252" transform="translate(275,228)"/>
<path d="M0 0 C0.33 0 0.66 0 1 0 C1 1.65 1 3.3 1 5 C1.66 5 2.32 5 3 5 C3.33 4.34 3.66 3.68 4 3 C4 5.97 4 8.94 4 12 C0.67617413 7.66457495 -0.12018668 5.52858726 0 0 Z " fill="#6A6A6A" transform="translate(227,186)"/>
<path d="M0 0 C-1.65 1.65 -3.3 3.3 -5 5 C-5.99 4.67 -6.98 4.34 -8 4 C-8 3.01 -8 2.02 -8 1 C-5.29120665 -0.35439668 -2.99066732 -0.06501451 0 0 Z " fill="#2F2F2F" transform="translate(199,106)"/>
<path d="M0 0 C0.66 0 1.32 0 2 0 C2 2.64 2 5.28 2 8 C1.01 8 0.02 8 -1 8 C-1.04241723 5.66705225 -1.04092937 3.33297433 -1 1 C-0.67 0.67 -0.34 0.34 0 0 Z " fill="#1C1C1C" transform="translate(213,188)"/>
<path d="M0 0 C0.99 0 1.98 0 3 0 C3 2.31 3 4.62 3 7 C2.67 6.34 2.34 5.68 2 5 C1.34 5 0.68 5 0 5 C-0.5625 3.0625 -0.5625 3.0625 -1 1 C-0.67 0.67 -0.34 0.34 0 0 Z " fill="#1B1B1B" transform="translate(201,129)"/>
<path d="M0 0 C0 3.3 0 6.6 0 10 C-0.33 10 -0.66 10 -1 10 C-1 8.35 -1 6.7 -1 5 C-1.66 5 -2.32 5 -3 5 C-3 3.68 -3 2.36 -3 1 C-1 0 -1 0 0 0 Z " fill="#454545" transform="translate(215,166)"/>
<path d="M0 0 C0.66 0.33 1.32 0.66 2 1 C0.02 2.32 -1.96 3.64 -4 5 C-4.99 4.34 -5.98 3.68 -7 3 C-4.69631264 1.93347808 -2.35981813 0.93578995 0 0 Z " fill="#6A6A6A" transform="translate(321,210)"/>
<path d="M0 0 C0.33 0.66 0.66 1.32 1 2 C-0.32 3.65 -1.64 5.3 -3 7 C-3.99 6.67 -4.98 6.34 -6 6 C-4.02 4.02 -2.04 2.04 0 0 Z " fill="#7F7F7F" transform="translate(390,165)"/>
<path d="M0 0 C2.4375 0.375 2.4375 0.375 5 1 C5.33 1.66 5.66 2.32 6 3 C3.36 3 0.72 3 -2 3 C-1.34 2.01 -0.68 1.02 0 0 Z " fill="#1B1B1B" transform="translate(238,121)"/>
<path d="" fill="#FFFFFF" transform="translate(0,0)"/>
<path d="" fill="#FFFFFF" transform="translate(0,0)"/>
<path d="" fill="#FFFFFF" transform="translate(0,0)"/>
<path d="" fill="#FFFFFF" transform="translate(0,0)"/>
<path d="" fill="#FFFFFF" transform="translate(0,0)"/>
<path d="" fill="#FFFFFF" transform="translate(0,0)"/>
<path d="" fill="#FFFFFF" transform="translate(0,0)"/>
<path d="" fill="#FFFFFF" transform="translate(0,0)"/>
<path d="" fill="#FFFFFF" transform="translate(0,0)"/>
<path d="" fill="#FFFFFF" transform="translate(0,0)"/>
<path d="" fill="#FFFFFF" transform="translate(0,0)"/>
<path d="" fill="#FFFFFF" transform="translate(0,0)"/>
<path d="" fill="#FFFFFF" transform="translate(0,0)"/>
<path d="" fill="#FFFFFF" transform="translate(0,0)"/>
<path d="" fill="#FFFFFF" transform="translate(0,0)"/>
<path d="" fill="#FFFFFF" transform="translate(0,0)"/>
<path d="" fill="#FFFFFF" transform="translate(0,0)"/>
<path d="" fill="#FFFFFF" transform="translate(0,0)"/>
<path d="" fill="#FFFFFF" transform="translate(0,0)"/>
<path d="" fill="#FFFFFF" transform="translate(0,0)"/>
<path d="" fill="#FFFFFF" transform="translate(0,0)"/>
<path d="" fill="#FFFFFF" transform="translate(0,0)"/>
<path d="" fill="#FFFFFF" transform="translate(0,0)"/>
<path d="" fill="#FFFFFF" transform="translate(0,0)"/>
<path d="" fill="#FFFFFF" transform="translate(0,0)"/>
<path d="" fill="#FFFFFF" transform="translate(0,0)"/>
<path d="" fill="#FFFFFF" transform="translate(0,0)"/>
<path d="" fill="#FFFFFF" transform="translate(0,0)"/>
<path d="" fill="#FFFFFF" transform="translate(0,0)"/>
<path d="" fill="#FFFFFF" transform="translate(0,0)"/>
<path d="" fill="#FFFFFF" transform="translate(0,0)"/>
<path d="" fill="#FFFFFF" transform="translate(0,0)"/>
<path d="" fill="#FFFFFF" transform="translate(0,0)"/>
<path d="" fill="#FFFFFF" transform="translate(0,0)"/>
<path d="" fill="#FFFFFF" transform="translate(0,0)"/>
<path d="" fill="#FFFFFF" transform="translate(0,0)"/>
<path d="" fill="#FFFFFF" transform="translate(0,0)"/>
<path d="" fill="#FFFFFF" transform="translate(0,0)"/>
<path d="" fill="#FFFFFF" transform="translate(0,0)"/>
<path d="" fill="#FFFFFF" transform="translate(0,0)"/>
<path d="" fill="#FFFFFF" transform="translate(0,0)"/>
<path d="" fill="#FFFFFF" transform="translate(0,0)"/>
<path d="" fill="#FFFFFF" transform="translate(0,0)"/>
<path d="" fill="#FFFFFF" transform="translate(0,0)"/>
<path d="" fill="#FFFFFF" transform="translate(0,0)"/>
<path d="" fill="#FFFFFF" transform="translate(0,0)"/>
<path d="" fill="#FFFFFF" transform="translate(0,0)"/>
<path d="" fill="#FFFFFF" transform="translate(0,0)"/>
<path d="" fill="#FFFFFF" transform="translate(0,0)"/>
<path d="" fill="#FFFFFF" transform="translate(0,0)"/>
<path d="" fill="#FFFFFF" transform="translate(0,0)"/>
<path d="" fill="#FFFFFF" transform="translate(0,0)"/>
<path d="" fill="#FFFFFF" transform="translate(0,0)"/>
<path d="" fill="#FFFFFF" transform="translate(0,0)"/>
<path d="" fill="#FFFFFF" transform="translate(0,0)"/>
<path d="" fill="#FFFFFF" transform="translate(0,0)"/>
<path d="" fill="#FFFFFF" transform="translate(0,0)"/>
<path d="" fill="#FFFFFF" transform="translate(0,0)"/>
<path d="" fill="#FFFFFF" transform="translate(0,0)"/>
<path d="" fill="#FFFFFF" transform="translate(0,0)"/>
<path d="" fill="#FFFFFF" transform="translate(0,0)"/>
<path d="" fill="#FFFFFF" transform="translate(0,0)"/>
<path d="" fill="#FFFFFF" transform="translate(0,0)"/>
<path d="" fill="#FFFFFF" transform="translate(0,0)"/>
<path d="" fill="#FFFFFF" transform="translate(0,0)"/>
<path d="" fill="#FFFFFF" transform="translate(0,0)"/>
<path d="" fill="#FFFFFF" transform="translate(0,0)"/>
<path d="" fill="#FFFFFF" transform="translate(0,0)"/>
</svg>
